<?xml version="1.0" encoding="UTF-8" standalone="no"?><!DOCTYPE svg PUBLIC "-//W3C//DTD SVG 1.1//EN" "http://www.w3.org/Graphics/SVG/1.1/DTD/svg11.dtd"><svg width="100%" height="100%" viewBox="0 0 2134 2134" version="1.1" xmlns="http://www.w3.org/2000/svg" xmlns:xlink="http://www.w3.org/1999/xlink" xml:space="preserve" xmlns:serif="http://www.serif.com/" style="fill-rule:evenodd;clip-rule:evenodd;stroke-linejoin:round;stroke-miterlimit:2;"><g><path d="M509.021,374.603l-0,-181.5c6.541,-0.417 12.5,-1.167 18.541,-1.167c187.5,0 375.001,-2.541 562.501,0.959c104.666,1.958 204.166,30.958 291.666,91.125c104.542,71.791 161.458,173.083 178.417,297.458c11.625,85.25 10.542,170.417 -10.292,254.167c-34.292,138.25 -119.5,233.333 -249.417,289.416c-80.083,34.459 -164.541,48.75 -251.333,49.25c-104.833,0.584 -209.708,0 -314.542,0l-25,0l0,491.667l-200,0l0,-674.625l25.25,0c143.75,0 287.501,2.333 431.209,-1.125c60.151,-1.687 119.943,-9.873 178.333,-24.417c102.5,-25.25 164.625,-94.041 190.042,-196.666c22.917,-92.542 11.75,-179.792 -37.208,-261.875c-33.334,-56.167 -84.75,-90.209 -145.834,-106.292c-45.421,-12.261 -92.104,-19.251 -139.125,-20.833c-160.958,-3.834 -321.958,-3.917 -482.958,-5.417c-6.333,-0.167 -12.583,-0.125 -20.25,-0.125Z" style="fill:#fff;fill-rule:nonzero;"/><path d="M1765.98,1941.89l-109.208,-0c-40.25,-0 -80.5,-0.709 -120.833,0.375c-14.542,0.375 -21.75,-4.875 -29.167,-17.084c-103.611,-173.75 -207.681,-347.25 -312.208,-520.5c-33.334,-55.041 -73.125,-105.458 -126.084,-148.083c38.959,-3.417 74.625,-5.083 109.875,-10.083c34.919,-4.832 69.511,-11.79 103.583,-20.834c14.251,-3.833 22.209,-1.75 29.709,9.209c43.083,62.875 88.083,124.458 128.875,188.75c104.667,165.041 207.417,331.291 310.958,497.041c3.917,5.709 7.875,11.334 14.5,21.209Z" style="fill:#fff;fill-rule:nonzero;"/><rect x="510.021" y="455.145" width="197.667" height="455.75" style="fill:#fff;fill-rule:nonzero;"/><rect x="509.937" y="1747.98" width="198.417" height="192.417" style="fill:#fff;fill-rule:nonzero;"/></g></svg>